<svg width="18" height="18" viewBox="0 0 18 18" fill="none" xmlns="http://www.w3.org/2000/svg">
<path fill-rule="evenodd" clip-rule="evenodd" d="M7.49228 4.15123C8.02401 1.77539 10.1458 0 12.6818 0C15.619 0 18 2.38104 18 5.31818C18 7.85423 16.2246 9.97599 13.8488 10.5077C13.6982 9.33319 13.2707 8.24574 12.6343 7.3121L12.658 7.3123L12.6818 7.3125C13.7832 7.3125 14.6761 6.41961 14.6761 5.31818C14.6761 4.21675 13.7832 3.32386 12.6818 3.32386C11.5804 3.32386 10.6875 4.21675 10.6875 5.31818L10.6877 5.34195L10.6879 5.36572C9.75426 4.72931 8.66681 4.30185 7.49228 4.15123ZM6.54545 18C10.1606 18 13.0909 15.0696 13.0909 11.4545C13.0909 7.83944 10.1606 4.90909 6.54545 4.90909C2.93035 4.90909 0 7.83944 0 11.4545C0 15.0696 2.93035 18 6.54545 18ZM6.54545 13.9091C7.90097 13.9091 9 12.8101 9 11.4545C9 10.099 7.90097 9 6.54545 9C5.18994 9 4.09091 10.099 4.09091 11.4545C4.09091 12.8101 5.18994 13.9091 6.54545 13.9091ZM17 13V17H13L17 13ZM1 0L1 4L5 0H1Z" fill="#8D91A5"/>
</svg>
