<svg width="12" height="12" viewBox="0 0 12 12" fill="none" xmlns="http://www.w3.org/2000/svg">
<path fill-rule="evenodd" clip-rule="evenodd" d="M7.60776 9.10096C6.83847 9.59515 5.92316 9.88179 4.94089 9.88179C2.21211 9.88179 0 7.66967 0 4.94089C0 4.93859 1.5705e-06 4.93629 4.71049e-06 4.934C1.5705e-06 4.9317 0 4.92941 0 4.92711C0 2.20594 2.20593 0 4.92708 0C4.92938 0 4.93168 1.5775e-06 4.93398 4.73149e-06C4.93628 1.5775e-06 4.93859 0 4.94089 0C7.66967 0 9.88178 2.21211 9.88178 4.94089C9.88178 5.92319 9.59513 6.83854 9.10091 7.60784L11.9993 10.5063L10.5062 11.9994L7.60776 9.10096ZM8.11718 4.94089C8.11718 6.69511 6.69511 8.11718 4.94089 8.11718C3.18668 8.11718 1.7646 6.69511 1.7646 4.94089C1.7646 3.18668 3.18668 1.7646 4.94089 1.7646C6.69511 1.7646 8.11718 3.18668 8.11718 4.94089Z" fill="#8D91A5"/>
</svg>
