<svg width="16" height="16" viewBox="0 0 16 16" fill="none" xmlns="http://www.w3.org/2000/svg">
<path fill-rule="evenodd" clip-rule="evenodd" d="M9.47741 4.07591C9.25547 3.94349 8.96198 3.98652 8.79059 4.18777L8.74458 4.25062C8.60923 4.46776 8.65321 4.75489 8.85891 4.92258L11.462 7.5H3.16699C2.89085 7.5 2.66699 7.72386 2.66699 8C2.66699 8.27614 2.89085 8.5 3.16699 8.5H11.4609L8.85891 11.0774L8.80207 11.1311C8.62889 11.3208 8.61919 11.611 8.79059 11.8122C8.97912 12.0336 9.31539 12.0635 9.54166 11.8791L13.1418 8.40083L13.2004 8.34522C13.2883 8.24812 13.3327 8.12609 13.3336 8.00381C13.3337 8.00254 13.3337 8.00127 13.3337 8C13.3337 7.99913 13.3337 7.99826 13.3337 7.99739C13.3329 7.85 13.2689 7.70285 13.1418 7.59917L9.54166 4.12092L9.47741 4.07591Z" fill="#2D2F39"/>
</svg>
